#!OML:ASF X:\für Bonn\!DataBase\2005_08_12_Daniel\c3d\Daniel.ASF
:FULLY-SPECIFIED
:DEGREES
16
root 0.760244 17.1737 2.55318 164.943 1.97585 -180.254
lowerback 19.7414 -3.44173 1.27679
upperback 6.49735 -3.26543 -1.73121
thorax -4.19077 -1.11047 -1.85383
lowerneck 5.442 1.54024 -5.85573
upperneck 25.3155 6.52907 -2.85122
head 6.87805 3.73003 0.489322
rclavicle 2.95692e-015 -2.38542e-015
rhumerus -44.7166 26.4637 -107.436
rradius 77.018
rwrist -66.368
rhand -12.0374 8.08819
rfingers 7.12502
rthumb 14.021 -21.4189
lclavicle 2.95692e-015 -2.38542e-015
lhumerus -32.8275 24.7257 76.4726
lradius 39.3422
lwrist -9.96862
lhand -13.428 -8.16254
lfingers 7.12502
lthumb 12.6806 21.4325
rfemur -8.57465 6.70155 19.1459
rtibia 29.4178
rfoot -9.36929 -5.73389
rtoes -9.9531
lfemur 9.02006 0.320542 -13.9157
ltibia 49.5383
lfoot -14.36 -12.2502
ltoes -8.30658
17
root 0.797616 17.1598 2.4751 164.793 1.42181 -179.81
lowerback 19.9908 -3.60643 1.63914
upperback 6.56467 -3.36814 -1.52865
thorax -4.26173 -1.14783 -1.81268
lowerneck 5.55716 1.43292 -5.78772
upperneck 25.3027 6.40008 -2.91036
head 6.85934 3.67922 0.451214
rclavicle 6.18717e-015 -1.0138e-014
rhumerus -44.5138 26.5002 -107.157
rradius 76.4979
rwrist -66.2436
rhand -12.1868 8.0942
rfingers 7.12502
rthumb 13.877 -21.4228
lclavicle 6.18717e-015 -1.0138e-014
lhumerus -32.8451 24.9639 76.7769
lradius 39.5479
lwrist -9.8956
lhand -13.3064 -8.15134
lfingers 7.12502
lthumb 12.7978 21.4364
rfemur -8.16722 6.23041 19.6463
rtibia 29.7247
rfoot -9.74641 -5.84185
rtoes -9.20974
lfemur 7.95209 0.107539 -13.036
ltibia 51.4445
lfoot -12.783 -13.0047
ltoes -8.54051
18
root 0.83294 17.1455 2.40033 164.652 0.886269 -179.362
lowerback 20.2444 -3.76392 2.05603
upperback 6.6248 -3.44921 -1.36326
thorax -4.3472 -1.17375 -1.84596
lowerneck 5.67541 1.29635 -5.61326
upperneck 25.3047 6.23717 -2.99316
head 6.84726 3.61994 0.38675
rclavicle 1.27471e-014 -2.5842e-015
rhumerus -44.3001 26.4243 -106.898
rradius 76.0217
rwrist -66.0668
rhand -12.3458 8.02384
rfingers 7.12502
rthumb 13.7237 -21.5036
lclavicle 1.27471e-014 -2.5842e-015
lhumerus -32.8431 25.0852 77.0471
lradius 39.7185
lwrist -9.83865
lhand -13.0821 -8.16194
lfingers 7.12502
lthumb 13.014 21.4121
rfemur -7.76992 5.75872 20.1497
rtibia 29.9749
rfoot -10.0969 -5.98636
rtoes -8.54967
lfemur 6.8316 -0.168947 -12.202
ltibia 53.3558
lfoot -11.3537 -13.637
ltoes -8.735
19
root 0.865744 17.1324 2.32747 164.502 0.370331 -178.878
lowerback 20.4963 -3.93455 2.516
upperback 6.7119 -3.52748 -1.17994
thorax -4.40429 -1.19438 -1.88506
lowerneck 5.73292 1.16642 -5.48139
upperneck 25.3098 6.08002 -3.06577
head 6.84481 3.55668 0.33443
rclavicle 8.44835e-015 -2.5842e-015
rhumerus -44.0382 26.413 -106.594
rradius 75.558
rwrist -65.8875
rhand -12.5171 7.9881
rfingers 7.12502
rthumb 13.5586 -21.5504
lclavicle 8.44835e-015 -2.5842e-015
lhumerus -32.8049 25.3247 77.3381
lradius 39.849
lwrist -9.93148
lhand -12.9203 -8.19943
lfingers 7.12502
lthumb 13.1701 21.3646
rfemur -7.36178 5.36162 20.6886
rtibia 30.1719
rfoot -10.4412 -6.17915
rtoes -7.87591
lfemur 5.70267 -0.486451 -11.3671
ltibia 55.2455
lfoot -10.1705 -14.2314
ltoes -9.29109
20
root 0.897526 17.1211 2.2569 164.357 -0.125157 -178.472
lowerback 20.7107 -2.53206 3.49528
upperback 6.81296 -3.97421 -0.876022
thorax -4.41716 -2.48708 -1.92206
lowerneck 5.82068 1.04006 -5.35372
upperneck 25.288 5.9144 -3.11139
head 6.82696 3.49125 0.289736
rclavicle -1.78161e-014 2.42517e-014
rhumerus -43.8227 26.3667 -106.314
rradius 75.1728
rwrist -65.7318
rhand -12.7389 7.89067
rfingers 7.12502
rthumb 13.3449 -21.662
lclavicle -1.78161e-014 2.42517e-014
lhumerus -32.7742 25.5021 77.6163
lradius 39.9615
lwrist -9.99213
lhand -12.7077 -8.18947
lfingers 7.12502
lthumb 13.375 21.3612
rfemur -6.98036 4.9686 21.1423
rtibia 30.3531
rfoot -10.7702 -6.33774
rtoes -7.25887
lfemur 4.56923 -0.815598 -10.664
ltibia 57.0741
lfoot -9.11303 -14.687
ltoes -10.0739
21
root 0.92685 17.1137 2.18914 164.222 -0.579969 -178.119
lowerback 20.94 -2.60307 3.89684
upperback 6.92657 -4.0048 -0.743702
thorax -4.42358 -2.5139 -1.99191
lowerneck 5.82465 0.891637 -5.18727
upperneck 25.2769 5.70856 -3.13732
head 6.82575 3.40526 0.245366
rclavicle 6.02069e-014 -3.77691e-015
rhumerus -43.4991 26.3015 -105.966
rradius 74.7756
rwrist -65.5387
rhand -12.9293 7.79282
rfingers 7.12502
rthumb 13.1614 -21.7718
lclavicle 6.02069e-014 -3.77691e-015
lhumerus -32.6275 25.6703 77.9336
lradius 40.0195
lwrist -10.1499
lhand -12.4868 -8.17818
lfingers 7.12502
lthumb 13.5878 21.3584
rfemur -6.6374 4.59712 21.5363
rtibia 30.5203
rfoot -11.0368 -6.48663
rtoes -6.77976
lfemur 3.4588 -1.17279 -10.0759
ltibia 58.7935
lfoot -8.21265 -14.9566
ltoes -10.6814
22
root 0.953893 17.1077 2.12469 164.124 -1.02872 -177.887
lowerback 21.1804 -2.66519 4.19783
upperback 6.99631 -4.03426 -0.650718
thorax -4.48049 -2.53745 -2.04464
lowerneck 5.8631 0.747713 -5.05214
upperneck 25.2858 5.51572 -3.15048
head 6.82464 3.32703 0.210669
rclavicle -1.71452e-015 7.35503e-015
rhumerus -43.2455 26.205 -105.661
rradius 74.3974
rwrist -65.3134
rhand -13.0818 7.64388
rfingers 7.12502
rthumb 13.0143 -21.9302
lclavicle -1.71452e-015 7.35503e-015
lhumerus -32.5657 25.8295 78.2074
lradius 40.0591
lwrist -10.3741
lhand -12.3755 -8.20488
lfingers 7.12502
lthumb 13.6951 21.3245
rfemur -6.36836 4.27918 21.7908
rtibia 30.6986
rfoot -11.3054 -6.63899
rtoes -6.45073
lfemur 2.35345 -1.54652 -9.68182
ltibia 60.3687
lfoot -7.49404 -14.9725
ltoes -10.8354
23
root 0.97918 17.1039 2.06336 164.061 -1.4127 -177.762
lowerback 21.4011 -2.67986 4.38473
upperback 7.06966 -4.02601 -0.568235
thorax -4.51535 -2.54287 -2.05475
lowerneck 5.91677 0.615998 -4.96841
upperneck 25.2493 5.32199 -3.13787
head 6.80425 3.24451 0.191457
rclavicle 2.14936e-014 -9.14409e-015
rhumerus -42.9547 26.1711 -105.3
rradius 74.0287
rwrist -65.1667
rhand -13.2495 7.48968
rfingers 7.12502
rthumb 12.8527 -22.0946
lclavicle 2.14936e-014 -9.14409e-015
lhumerus -32.4841 25.965 78.5129
lradius 40.0866
lwrist -10.6273
lhand -12.2903 -8.11737
lfingers 7.12502
lthumb 13.7773 21.4064
rfemur -6.15733 3.93324 21.9339
rtibia 30.874
rfoot -11.5502 -6.70081
rtoes -6.40415
lfemur 1.30893 -1.85181 -9.42988
ltibia 61.7612
lfoot -7.09521 -14.8505
ltoes -11.0394
24
root 1.00162 17.1024 2.0076 163.995 -1.72782 -177.689
lowerback 21.6876 -2.6677 4.56746
upperback 7.14059 -3.98421 -0.519862
thorax -4.58554 -2.53335 -2.10402
lowerneck 5.88934 0.466737 -4.84154
upperneck 25.2534 5.10512 -3.11473
head 6.81056 3.15105 0.169969
rclavicle -1.31571e-014 2.88238e-015
rhumerus -42.6432 26.0756 -104.938
rradius 73.7057
rwrist -64.9448
rhand -13.4276 7.29788
rfingers 7.12502
rthumb 12.681 -22.2971
lclavicle -1.31571e-014 2.88238e-015
lhumerus -32.3509 26.0779 78.8087
lradius 40.0444
lwrist -10.8684
lhand -12.2992 -8.02052
lfingers 7.12502
lthumb 13.7687 21.5039
rfemur -5.97045 3.62855 22.0228
rtibia 31.0387
rfoot -11.7771 -6.72387
rtoes -6.52182
lfemur 0.322596 -2.14104 -9.29057
ltibia 62.9835
lfoot -6.94981 -14.5589
ltoes -11.2774
25
root 1.02156 17.1049 1.95493 163.973 -1.99327 -177.649
lowerback 21.9666 -2.63895 4.73325
upperback 7.19778 -3.92064 -0.478196
thorax -4.6642 -2.51229 -2.15681
lowerneck 5.84552 0.324534 -4.75948
upperneck 25.2685 4.8973 -3.07266
head 6.82231 3.05897 0.162992
rclavicle 6.06293e-015 3.97569e-016
rhumerus -42.3089 25.9925 -104.566
rradius 73.3628
rwrist -64.7299
rhand -13.5887 7.10116
rfingers 7.12502
rthumb 12.5256 -22.5034
lclavicle 6.06293e-015 3.97569e-016
lhumerus -32.2329 26.1785 79.0893
lradius 39.9832
lwrist -11.232
lhand -12.3215 -7.86265
lfingers 7.12502
lthumb 13.7471 21.6632
rfemur -5.83061 3.33715 22.0733
rtibia 31.1898
rfoot -11.9797 -6.67552
rtoes -6.75072
lfemur -0.671158 -2.41311 -9.22359
ltibia 64.0391
lfoot -6.91115 -14.1332
ltoes -11.2143
26
root 1.04083 17.1088 1.90525 163.962 -2.23478 -177.634
lowerback 22.2847 -2.59542 4.87697
upperback 7.22429 -3.83352 -0.435999
thorax -4.79263 -2.47899 -2.20006
lowerneck 5.89205 0.183597 -4.7306
upperneck 25.264 4.68398 -2.99009
head 6.81124 2.96742 0.175867
rclavicle 1.36292e-014 -1.03368e-014
rhumerus -42.0162 25.8428 -104.165
rradius 73.0582
rwrist -64.4941
rhand -13.7016 6.82019
rfingers 7.12502
rthumb 12.4168 -22.791
lclavicle 1.36292e-014 -1.03368e-014
lhumerus -32.1438 26.171 79.3837
lradius 39.9049
lwrist -11.523
lhand -12.3488 -7.73083
lfingers 7.12502
lthumb 13.7209 21.7968
rfemur -5.71441 3.10592 22.1074
rtibia 31.3597
rfoot -12.2249 -6.67332
rtoes -6.92595
lfemur -1.62672 -2.63519 -9.19573
ltibia 64.927
lfoot -6.98355 -13.6246
ltoes -11.1611
27
root 1.05908 17.1102 1.85855 163.976 -2.4523 -177.654
lowerback 22.5955 -2.53834 4.99062
upperback 7.25973 -3.73755 -0.411085
thorax -4.90602 -2.44178 -2.2487
lowerneck 5.88041 0.0477827 -4.69001
upperneck 25.2729 4.47417 -2.89608
head 6.81404 2.87581 0.191849
rclavicle -2.38914e-014 1.64991e-014
rhumerus -41.714 25.7056 -103.767
rradius 72.7732
rwrist -64.2842
rhand -13.7957 6.57095
rfingers 7.12502
rthumb 12.3261 -23.0457
lclavicle -2.38914e-014 1.64991e-014
lhumerus -32.0048 26.2383 79.63
lradius 39.7413
lwrist -11.9806
lhand -12.3799 -7.58252
lfingers 7.12502
lthumb 13.6909 21.9471
rfemur -5.65519 2.93558 22.1122
rtibia 31.5663
rfoot -12.4662 -6.69134
rtoes -7.08193
lfemur -2.54996 -2.84621 -9.23825
ltibia 65.6582
lfoot -7.14182 -13.025
ltoes -11.1041
28
root 1.07554 17.1077 1.81394 164.018 -2.64542 -177.694
lowerback 22.8831 -2.4684 5.08551
upperback 7.30163 -3.63045 -0.387826
thorax -4.99829 -2.39912 -2.29372
lowerneck 5.89546 -0.0777639 -4.72812
upperneck 25.2493 4.26489 -2.76845
head 6.80057 2.77991 0.230904
rclavicle 2.59538e-014 -1.5704e-014
rhumerus -41.4082 25.4924 -103.338
rradius 72.543
rwrist -64.0264
rhand -13.8197 6.30914
rfingers 7.12502
rthumb 12.3029 -23.3089
lclavicle 2.59538e-014 -1.5704e-014
lhumerus -31.8464 26.2864 79.879
lradius 39.5379
lwrist -12.4796
lhand -12.398 -7.5385
lfingers 7.12502
lthumb 13.6735 21.9923
rfemur -5.66534 2.75111 22.0908
rtibia 31.8153
rfoot -12.7095 -6.67222
rtoes -7.47053
lfemur -3.41943 -3.03913 -9.32344
ltibia 66.225
lfoot -7.41818 -12.3547
ltoes -11.2435
29
root 1.09101 17.1045 1.77208 164.084 -2.8482 -177.747
lowerback 23.1669 -2.39743 5.1901
upperback 7.33889 -3.51873 -0.388949
thorax -5.09466 -2.35335 -2.37272
lowerneck 5.91858 -0.205102 -4.70673
upperneck 25.2038 4.04348 -2.63156
head 6.77869 2.68293 0.261785
rclavicle -8.79622e-015 -9.69075e-015
rhumerus -41.1073 25.241 -102.927
rradius 72.3101
rwrist -63.7185
rhand -13.8771 6.09319
rfingers 7.12502
rthumb 12.2476 -23.5282
lclavicle -8.79622e-015 -9.69075e-015
lhumerus -31.6476 26.2336 80.1127
lradius 39.2786
lwrist -12.8953
lhand -12.3918 -7.40325
lfingers 7.12502
lthumb 13.6794 22.1272
rfemur -5.72773 2.5425 22.0382
rtibia 32.0916
rfoot -12.9622 -6.62411
rtoes -7.6482
lfemur -4.30459 -3.18414 -9.43143
ltibia 66.6592
lfoot -7.77114 -11.6188
ltoes -11.1998
30
root 1.10474 17.1026 1.73146 164.143 -2.99987 -177.809
lowerback 23.4767 -2.32106 5.28364
upperback 7.36995 -3.40088 -0.387445
thorax -5.20895 -2.30552 -2.44374
lowerneck 5.98075 -0.31366 -4.80164
upperneck 25.1505 3.84007 -2.44489
head 6.74673 2.5897 0.328575
rclavicle 1.002e-014 -1.21259e-014
rhumerus -40.8323 24.9698 -102.524
rradius 72.112
rwrist -63.4162
rhand -13.8727 5.88304
rfingers 7.12502
rthumb 12.2519 -23.7381
lclavicle 1.002e-014 -1.21259e-014
lhumerus -31.5222 26.2726 80.294
lradius 39.009
lwrist -13.4616
lhand -12.39 -7.36462
lfingers 7.12502
lthumb 13.6812 22.1657
rfemur -5.76795 2.44623 22.007
rtibia 32.3557
rfoot -13.2186 -6.63868
rtoes -8.00458
lfemur -5.13358 -3.30744 -9.59508
ltibia 66.9407
lfoot -8.19755 -10.6873
ltoes -10.6201
